PathFileType	4	(X/Y/Z)	/Users/itak/Documents/Research/Walk-IL/dataset/trc/00248_00009.trc
DataRate	CameraRate	NumFrames	NumMarkers	Units	OrigDataRate	OrigDataStartFrame	OrigNumFrames
100.000000	100.000000	4	53	mm	100.000000	339	543
Frame#	Time	RPSI			LPSI			L3			STRN			T10			C7			CLAV			RBAK			LBAK			LSHO			LUPA			LAEL			LAOL			LWTS			LWPS			LFRA			LHPS			LHTS			RSHO			RUPA			RAEL			RAOL			RWTS			RWPS			RFRA			RIFD			RHTS			RHPS			RBHD			LFHD			RFHD			LBHD			LHIP			RHIP			RASI			LASI			LKNE			LTHI			LANK			LTIP			LTOE			LMT1			LMT5			LHEE			RKNE			RTHI			RANK			RTIP			RTOE			RMT1			RMT5			RHEE			LIFD			
		X1	Y1	Z1	X2	Y2	Z2	X3	Y3	Z3	X4	Y4	Z4	X5	Y5	Z5	X6	Y6	Z6	X7	Y7	Z7	X8	Y8	Z8	X9	Y9	Z9	X10	Y10	Z10	X11	Y11	Z11	X12	Y12	Z12	X13	Y13	Z13	X14	Y14	Z14	X15	Y15	Z15	X16	Y16	Z16	X17	Y17	Z17	X18	Y18	Z18	X19	Y19	Z19	X20	Y20	Z20	X21	Y21	Z21	X22	Y22	Z22	X23	Y23	Z23	X24	Y24	Z24	X25	Y25	Z25	X26	Y26	Z26	X27	Y27	Z27	X28	Y28	Z28	X29	Y29	Z29	X30	Y30	Z30	X31	Y31	Z31	X32	Y32	Z32	X33	Y33	Z33	X34	Y34	Z34	X35	Y35	Z35	X36	Y36	Z36	X37	Y37	Z37	X38	Y38	Z38	X39	Y39	Z39	X40	Y40	Z40	X41	Y41	Z41	X42	Y42	Z42	X43	Y43	Z43	X44	Y44	Z44	X45	Y45	Z45	X46	Y46	Z46	X47	Y47	Z47	X48	Y48	Z48	X49	Y49	Z49	X50	Y50	Z50	X51	Y51	Z51	X52	Y52	Z52	X53	Y53	Z53	

340	3.39	-486.1925354003906	1019.097412109375	-54.97014999389648	-385.2264099121094	1023.025085449219	-119.2760620117188	-429.5425720214844	1110.199462890625	-96.71689605712891	-283.0318603515625	1281.822021484375	121.8943023681641	-433.3736267089844	1236.52734375	-83.08489227294922	-393.5031433105469	1493.414184570312	-19.49626541137695	-298.1341247558594	1400.62890625	108.153923034668	-500.4126892089844	1357.500122070312	-43.57284164428711	-319.1647644042969	1458.02587890625	-104.0288619995117	-220.8066864013672	1454.032104492188	-68.05808258056641	-183.9678344726562	1340.64599609375	-151.7552185058594	-162.8995971679688	1134.78125	-186.8926391601562	-248.3478698730469	1120.927124023438	-203.4801483154297	-139.0220336914062	891.32275390625	-105.0882949829102	-101.8626708984375	882.2685546875	-181.7096252441406	-138.2948760986328	1027.07958984375	-192.4669799804688	-93.28185272216797	792.8375854492188	-175.1795959472656	-99.90549468994141	789.6517333984375	-106.8455123901367	-496.4041442871094	1447.203369140625	125.2582397460938	-562.635986328125	1382.77099609375	146.5532531738281	-612.5287475585938	1101.672241210938	137.6879119873047	-558.6555786132812	1098.321166992188	59.08493804931641	-475.7287902832031	903.0135498046875	229.6090850830078	-556.8013916015625	878.4486083984375	224.9117889404297	-601.91259765625	1032.980834960938	167.2578277587891	-438.7132568359375	713.2373657226562	242.5357208251953	-451.1498718261719	785.0717163085938	273.5484008789062	-523.5220336914062	777.0701293945312	260.3212585449219	-392.7662353515625	1653.050537109375	50.10023880004883	-212.4711456298828	1665.673583984375	187.9643707275391	-300.5688171386719	1662.466552734375	234.6083374023438	-253.7810668945312	1655.870727539062	28.44598960876465	-209.0248260498047	967.8563232421875	-102.2453918457031	-526.816162109375	976.7749633789062	83.617919921875	-446.3636169433594	1019.574584960938	148.2928619384766	-204.6847991943359	1009.374145507812	7.258131504058838	-119.929443359375	528.71533203125	100.6387023925781	-126.0405426025391	653.4984741210938	22.06311988830566	-57.57499694824219	47.22574996948242	180.7367095947266	-86.26979827880859	303.2157592773438	121.6928253173828	-28.50154685974121	145.8242797851562	371.2034301757812	-91.71308898925781	111.0445709228516	337.2503356933594	5.312419414520264	93.93264007568359	280.9481811523438	-128.4597473144531	31.87690734863281	145.9298553466797	-480.7352600097656	492.1222534179688	19.93659400939941	-498.7665710449219	748.956787109375	111.7061996459961	-532.5794067382812	39.49001312255859	-164.7627410888672	-467.6198120117188	373.5284118652344	-13.87090587615967	-366.4302673339844	44.41102600097656	-27.41861724853516	-368.2660827636719	42.11428833007812	-98.34465026855469	-484.3817138671875	38.30059051513672	-62.81422805786133	-526.8632202148438	43.29355239868164	-250.248046875	-131.7259368896484	698.0789184570312	-126.0620727539062	
341	3.4	-479.0968017578125	1017.586669921875	-49.10824966430664	-377.5597229003906	1021.288452148438	-112.3816528320312	-422.2349548339844	1108.404663085938	-90.53944396972656	-277.7664794921875	1280.579345703125	128.9391479492188	-426.4135131835938	1234.749755859375	-77.23941040039062	-387.3304138183594	1491.79541015625	-13.90689182281494	-292.8340759277344	1399.339477539062	114.7615127563477	-493.8185729980469	1355.80859375	-38.59599685668945	-311.9779357910156	1456.291015625	-97.65843963623047	-214.1175537109375	1452.4296875	-60.95726013183594	-176.4981689453125	1338.904174804688	-144.1130218505859	-154.8105926513672	1133.010864257812	-178.6190948486328	-240.0780029296875	1118.939453125	-195.7705841064453	-130.9583740234375	889.9837646484375	-95.61286163330078	-93.25890350341797	880.656494140625	-171.9242095947266	-129.9520111083984	1025.304931640625	-183.5912170410156	-84.39618682861328	791.3114624023438	-164.84326171875	-91.54824066162109	788.4535522460938	-96.57603454589844	-491.2268676757812	1445.767578125	130.2080993652344	-557.6754150390625	1381.396728515625	150.9625396728516	-607.7410278320312	1100.335693359375	141.6134033203125	-553.1649169921875	1096.984619140625	63.54595565795898	-472.4065551757812	900.9814453125	234.3715515136719	-553.5925903320312	876.8318481445312	228.9996490478516	-597.576171875	1031.595825195312	171.1709289550781	-436.4261474609375	710.9274291992188	246.9864959716797	-448.602783203125	782.7957153320312	278.1612854003906	-520.9016723632812	775.0864868164062	264.5110778808594	-387.2308959960938	1651.6123046875	55.74996566772461	-207.6792297363281	1664.487060546875	194.595458984375	-296.0884094238281	1661.240844726562	240.6981506347656	-248.2053375244141	1654.536743164062	34.87220001220703	-201.7931365966797	966.0834350585938	-93.69409942626953	-520.6565551757812	975.4215087890625	89.31522369384766	-441.0680236816406	1018.38037109375	154.6539154052734	-198.3731689453125	1007.796020507812	15.80272960662842	-115.1764450073242	527.0242919921875	109.8660354614258	-120.4826126098633	651.7719116210938	31.49470520019531	-55.02531814575195	45.20114517211914	189.7975769042969	-82.47005462646484	301.1561584472656	131.0616760253906	-26.8123664855957	143.3602294921875	380.7108764648438	-89.94142913818359	108.7587127685547	346.3223876953125	7.314469337463379	91.46578216552734	290.5076599121094	-125.8670883178711	30.35999488830566	154.5191040039062	-477.6352844238281	491.4777221679688	23.51572608947754	-494.3808898925781	747.7636108398438	116.8668060302734	-532.21484375	40.20457077026367	-164.7169799804688	-465.3695068359375	372.9925842285156	-11.16752529144287	-366.4568176269531	44.34233474731445	-27.26496887207031	-368.3817749023438	42.23562622070312	-98.17738342285156	-484.3631591796875	38.22409057617188	-62.75018310546875	-526.629638671875	45.00278091430664	-250.2090301513672	-122.8631210327148	696.6680297851562	-115.5345230102539	
342	3.41	-471.86279296875	1016.083129882812	-43.07133865356445	-369.7436218261719	1019.600891113281	-105.4257965087891	-414.8143615722656	1106.538330078125	-84.18851470947266	-272.4468078613281	1279.366943359375	136.0800628662109	-419.3533325195312	1232.910278320312	-71.29821014404297	-381.0692138671875	1490.159545898438	-8.308326721191406	-287.4837036132812	1398.069458007812	121.4168090820312	-487.1124572753906	1354.065551757812	-33.59954071044922	-304.7019348144531	1454.500610351562	-91.25116729736328	-207.3436126708984	1450.78173828125	-53.79918670654297	-168.9355010986328	1337.094604492188	-136.3650054931641	-146.6252593994141	1131.162109375	-170.1896209716797	-231.7165679931641	1116.881591796875	-187.9423828125	-122.8899917602539	888.57373046875	-85.96867370605469	-84.61684417724609	878.9743041992188	-161.9356689453125	-121.5370635986328	1023.457458496094	-174.53369140625	-75.50217437744141	789.708984375	-154.3001251220703	-83.20309448242188	787.1900024414062	-86.10552978515625	-485.9847106933594	1444.336303710938	135.1468811035156	-552.6594848632812	1380.02490234375	155.3505706787109	-602.890625	1098.99951171875	145.5510101318359	-547.566650390625	1095.628540039062	68.06027221679688	-469.1244201660156	898.9417724609375	239.2148590087891	-550.40185546875	875.2234497070312	233.1322021484375	-593.2145385742188	1030.220581054688	175.1048278808594	-434.1404724121094	708.636962890625	251.5854949951172	-446.1225891113281	780.5346069335938	282.8888854980469	-518.2789916992188	773.0916748046875	268.8414306640625	-381.6476440429688	1650.176147460938	61.38015747070312	-202.8419342041016	1663.351318359375	201.20361328125	-291.5487060546875	1660.070434570312	246.7733764648438	-242.571044921875	1653.220825195312	41.28266525268555	-194.4878540039062	964.3201293945312	-84.99957275390625	-514.4915161132812	974.0643920898438	95.09422302246094	-435.6347045898438	1017.126953125	161.1458740234375	-191.9931030273438	1006.216125488281	24.50614738464355	-110.4972915649414	525.2542724609375	119.1038284301758	-115.0429992675781	650.0282592773438	41.10896682739258	-53.07837295532227	42.96399307250977	197.5441589355469	-79.03348541259766	298.88818359375	139.9476623535156	-25.38076400756836	139.5730438232422	389.3768005371094	-88.54488372802734	105.4834518432617	354.4523010253906	8.80030632019043	88.04265594482422	298.9173583984375	-123.9983825683594	29.04148483276367	161.8295440673828	-474.4574279785156	490.8768920898438	27.20474052429199	-489.9043884277344	746.5908813476562	122.1649856567383	-531.8518676757812	41.04419326782227	-164.6649475097656	-463.0613403320312	372.5238037109375	-8.365641593933105	-366.4582214355469	44.2662467956543	-27.08964157104492	-368.4956359863281	42.37247085571289	-97.99578857421875	-484.3067321777344	38.16044998168945	-62.68434524536133	-526.3411254882812	46.88653564453125	-250.1510925292969	-114.0235061645508	695.1965942382812	-104.8177032470703	
343	3.42	-464.5038452148438	1014.613952636719	-36.845703125	-361.809814453125	1018.0068359375	-98.39301300048828	-407.2840270996094	1104.617065429688	-77.65202331542969	-267.0728454589844	1278.213012695312	143.3166351318359	-412.1951599121094	1231.028564453125	-65.26241302490234	-374.7114868164062	1488.531005859375	-2.693617820739746	-282.0874633789062	1396.846557617188	128.1235198974609	-480.2908935546875	1352.290893554688	-28.58230400085449	-297.3597717285156	1452.677490234375	-84.81492614746094	-200.4880676269531	1449.111083984375	-46.58400726318359	-161.2876586914062	1335.23486328125	-128.5066833496094	-138.3453063964844	1129.254028320312	-161.5957794189453	-223.2544860839844	1114.771362304688	-179.9794921875	-114.8325881958008	887.1053466796875	-76.16307067871094	-75.943115234375	877.2373657226562	-151.7496948242188	-113.0547866821289	1021.558349609375	-165.2899322509766	-66.61425018310547	788.0452270507812	-143.5662078857422	-74.88002777099609	785.8724365234375	-75.44107055664062	-480.6963500976562	1442.930053710938	140.0621948242188	-547.5891723632812	1378.66552734375	159.7081146240234	-597.96337890625	1097.677734375	149.50341796875	-541.8453979492188	1094.2626953125	72.63114929199219	-465.8744506835938	896.9146118164062	244.1444244384766	-547.2217407226562	873.6347045898438	237.3080902099609	-588.822021484375	1028.868286132812	179.0611419677734	-431.8833312988281	706.3817138671875	256.3429870605469	-443.72705078125	778.3003540039062	287.7294616699219	-515.6619262695312	771.112060546875	273.3022155761719	-376.0132751464844	1648.77490234375	66.99636077880859	-197.9665679931641	1662.287475585938	207.7887878417969	-286.9491882324219	1658.979614257812	252.8395233154297	-236.8755493164062	1651.951171875	47.67845916748047	-187.0938415527344	962.6134033203125	-76.16117095947266	-508.3371887207031	972.7089233398438	100.9646224975586	-430.0833435058594	1015.8251953125	167.791259765625	-185.5459136962891	1004.658447265625	33.34682464599609	-105.8807754516602	523.4618530273438	128.3358459472656	-109.7378845214844	648.2833862304688	50.84193420410156	-51.60904693603516	40.66937255859375	204.021728515625	-75.89543151855469	296.5073547363281	148.4131622314453	-24.14304542541504	134.3559112548828	397.3512573242188	-87.45825958251953	101.189811706543	361.7340698242188	9.851142883300781	83.67808532714844	306.2747497558594	-122.717658996582	28.10975456237793	167.9006958007812	-471.1728515625	490.325439453125	31.02507209777832	-485.326904296875	745.450439453125	127.6104888916016	-531.5059204101562	42.03277587890625	-164.5946197509766	-460.6665344238281	372.1280212402344	-5.449920177459717	-366.4290771484375	44.17963409423828	-26.89132881164551	-368.5968627929688	42.53062438964844	-97.79811096191406	-484.2120971679688	38.11489105224609	-62.6096305847168	-526.0071411132812	48.95397567749023	-250.0602264404297	-105.2152404785156	693.6838989257812	-93.92315673828125	
